<mxfile host="app.diagrams.net" agent="Mozilla/5.0 (Windows NT 10.0; Win64; x64) AppleWebKit/537.36 (KHTML, like Gecko) Chrome/130.0.0.0 Safari/537.36 Edg/130.0.0.0" version="24.8.4">
  <diagram name="Page-1" id="93-fXcsScG-TuVa2TNiz">
    <mxGraphModel dx="1426" dy="749" grid="1" gridSize="10" guides="1" tooltips="1" connect="1" arrows="1" fold="1" page="1" pageScale="1" pageWidth="827" pageHeight="1169" math="0" shadow="0">
      <root>
        <mxCell id="0" />
        <mxCell id="1" parent="0" />
        <mxCell id="XeGXUOSI41-Mv8cLph2Z-4" value="" style="edgeStyle=orthogonalEdgeStyle;rounded=0;orthogonalLoop=1;jettySize=auto;html=1;" parent="1" source="XeGXUOSI41-Mv8cLph2Z-1" target="XeGXUOSI41-Mv8cLph2Z-3" edge="1">
          <mxGeometry relative="1" as="geometry" />
        </mxCell>
        <mxCell id="XeGXUOSI41-Mv8cLph2Z-1" value="" style="rhombus;whiteSpace=wrap;html=1;" parent="1" vertex="1">
          <mxGeometry x="350" y="40" width="80" height="80" as="geometry" />
        </mxCell>
        <mxCell id="XeGXUOSI41-Mv8cLph2Z-6" value="" style="edgeStyle=orthogonalEdgeStyle;rounded=0;orthogonalLoop=1;jettySize=auto;html=1;" parent="1" source="XeGXUOSI41-Mv8cLph2Z-3" target="XeGXUOSI41-Mv8cLph2Z-5" edge="1">
          <mxGeometry relative="1" as="geometry" />
        </mxCell>
        <mxCell id="XeGXUOSI41-Mv8cLph2Z-3" value="" style="whiteSpace=wrap;html=1;" parent="1" vertex="1">
          <mxGeometry x="330" y="210" width="120" height="60" as="geometry" />
        </mxCell>
        <mxCell id="XeGXUOSI41-Mv8cLph2Z-8" value="" style="edgeStyle=orthogonalEdgeStyle;rounded=0;orthogonalLoop=1;jettySize=auto;html=1;" parent="1" source="XeGXUOSI41-Mv8cLph2Z-5" target="XeGXUOSI41-Mv8cLph2Z-7" edge="1">
          <mxGeometry relative="1" as="geometry" />
        </mxCell>
        <mxCell id="XeGXUOSI41-Mv8cLph2Z-5" value="" style="rhombus;whiteSpace=wrap;html=1;" parent="1" vertex="1">
          <mxGeometry x="550" y="200" width="80" height="80" as="geometry" />
        </mxCell>
        <mxCell id="XeGXUOSI41-Mv8cLph2Z-10" value="" style="edgeStyle=orthogonalEdgeStyle;rounded=0;orthogonalLoop=1;jettySize=auto;html=1;" parent="1" source="XeGXUOSI41-Mv8cLph2Z-7" target="XeGXUOSI41-Mv8cLph2Z-9" edge="1">
          <mxGeometry relative="1" as="geometry" />
        </mxCell>
        <mxCell id="XeGXUOSI41-Mv8cLph2Z-7" value="" style="rhombus;whiteSpace=wrap;html=1;" parent="1" vertex="1">
          <mxGeometry x="550" y="360" width="80" height="80" as="geometry" />
        </mxCell>
        <mxCell id="XeGXUOSI41-Mv8cLph2Z-12" value="" style="edgeStyle=orthogonalEdgeStyle;rounded=0;orthogonalLoop=1;jettySize=auto;html=1;" parent="1" source="XeGXUOSI41-Mv8cLph2Z-9" target="XeGXUOSI41-Mv8cLph2Z-11" edge="1">
          <mxGeometry relative="1" as="geometry" />
        </mxCell>
        <mxCell id="XeGXUOSI41-Mv8cLph2Z-9" value="" style="whiteSpace=wrap;html=1;" parent="1" vertex="1">
          <mxGeometry x="370" y="370" width="120" height="60" as="geometry" />
        </mxCell>
        <mxCell id="S9PHQrPTpxbpX22h7r4f-2" value="" style="edgeStyle=orthogonalEdgeStyle;rounded=0;orthogonalLoop=1;jettySize=auto;html=1;" edge="1" parent="1" source="XeGXUOSI41-Mv8cLph2Z-11" target="S9PHQrPTpxbpX22h7r4f-1">
          <mxGeometry relative="1" as="geometry" />
        </mxCell>
        <mxCell id="XeGXUOSI41-Mv8cLph2Z-11" value="" style="shape=hexagon;perimeter=hexagonPerimeter2;whiteSpace=wrap;html=1;fixedSize=1;" parent="1" vertex="1">
          <mxGeometry x="170" y="360" width="120" height="80" as="geometry" />
        </mxCell>
        <mxCell id="S9PHQrPTpxbpX22h7r4f-4" value="" style="edgeStyle=orthogonalEdgeStyle;rounded=0;orthogonalLoop=1;jettySize=auto;html=1;" edge="1" parent="1" source="S9PHQrPTpxbpX22h7r4f-1" target="S9PHQrPTpxbpX22h7r4f-3">
          <mxGeometry relative="1" as="geometry" />
        </mxCell>
        <mxCell id="S9PHQrPTpxbpX22h7r4f-1" value="" style="rounded=1;whiteSpace=wrap;html=1;" vertex="1" parent="1">
          <mxGeometry x="170" y="530" width="120" height="60" as="geometry" />
        </mxCell>
        <mxCell id="S9PHQrPTpxbpX22h7r4f-3" value="" style="ellipse;whiteSpace=wrap;html=1;rounded=1;" vertex="1" parent="1">
          <mxGeometry x="390" y="520" width="80" height="80" as="geometry" />
        </mxCell>
      </root>
    </mxGraphModel>
  </diagram>
</mxfile>
